<svg width="34" height="34" viewBox="0 0 34 34" fill="none" xmlns="http://www.w3.org/2000/svg">
<circle cx="17" cy="17" r="16.5" fill="white" stroke="#BBBBBB"/>
<path fill-rule="evenodd" clip-rule="evenodd" d="M21.9114 22.7957C20.7107 23.581 18.9704 24 17.4719 24C15.3709 24 13.4794 23.3105 12.0485 22.1637C11.936 22.0734 12.0368 21.9506 12.1717 22.0208C13.716 22.8181 15.6254 23.2977 17.5979 23.2977C18.9281 23.2977 20.3914 23.0535 21.737 22.5467C21.9402 22.4701 22.1102 22.6648 21.9114 22.7957Z" fill="#FF9900"/>
<path fill-rule="evenodd" clip-rule="evenodd" d="M22.4605 22.5351C22.3118 22.3413 21.4734 22.4435 21.0971 22.4888C20.9824 22.5031 20.9649 22.4018 21.0682 22.3289C21.7359 21.8518 22.8316 21.9895 22.9594 22.1494C23.0871 22.3102 22.9261 23.4254 22.2986 23.9576C22.2024 24.0394 22.1105 23.9958 22.1534 23.8874C22.2943 23.5302 22.6102 22.7296 22.4605 22.5351Z" fill="#FF9900"/>
<path fill-rule="evenodd" clip-rule="evenodd" d="M19.0188 15.5278C19.0188 16.3243 19.0389 16.9886 18.6367 17.696C18.3121 18.2712 17.7978 18.6248 17.2232 18.6248C16.4389 18.6248 15.9821 18.0267 15.9821 17.1439C15.9821 15.4012 17.5421 15.0849 19.0188 15.0849V15.5278ZM21.0787 20.5113C20.9437 20.632 20.7483 20.6407 20.5961 20.5602C19.9181 19.9965 19.7973 19.7348 19.4239 19.1971C18.3034 20.3416 17.5106 20.6838 16.0568 20.6838C14.3388 20.6838 13 19.6227 13 17.4976C13 15.8383 13.8992 14.7082 15.1777 14.1561C16.2867 13.6672 17.8352 13.5809 19.0188 13.4458V13.1812C19.0188 12.6952 19.0562 12.1201 18.7717 11.7002C18.5218 11.3236 18.0449 11.1682 17.6254 11.1682C16.8469 11.1682 16.1516 11.5679 15.9821 12.3961C15.9476 12.5802 15.8126 12.7613 15.6287 12.77L13.6464 12.5572C13.4798 12.5198 13.2959 12.3847 13.3419 12.1287C13.7987 9.72471 15.9678 9 17.9099 9C18.9038 9 20.2024 9.26458 20.9868 10.018C21.9808 10.9469 21.886 12.1862 21.886 13.5349V16.7211C21.886 17.6788 22.2824 18.0985 22.6559 18.6162C22.7881 18.8003 22.8168 19.0217 22.6502 19.1597C22.2336 19.5077 21.4924 20.1547 21.0845 20.517L21.0787 20.5113Z" fill="black"/>
</svg>
