<svg width="18" height="20" viewBox="0 0 18 20" fill="none" xmlns="http://www.w3.org/2000/svg">
<path d="M6.0625 15V16C6.0625 16.394 6.14107 16.7841 6.29372 17.1481C6.44636 17.512 6.6701 17.8427 6.95216 18.1213C7.23422 18.3999 7.56907 18.6209 7.9376 18.7716C8.30613 18.9224 8.70111 19 9.1 19C9.49889 19 9.89387 18.9224 10.2624 18.7716C10.6309 18.6209 10.9658 18.3999 11.2478 18.1213C11.5299 17.8427 11.7536 17.512 11.9063 17.1481C12.0589 16.7841 12.1375 16.394 12.1375 16V15M15.175 7C15.175 9.99999 17.2 15 17.2 15H1C1 15 3.025 11 3.025 7C3.025 3.732 5.79115 1 9.1 1C12.4089 1 15.175 3.732 15.175 7Z" stroke="#00B09B" stroke-linecap="round" stroke-linejoin="round"/>
</svg>
