<svg width="4" height="18" viewBox="0 0 4 18" fill="none" xmlns="http://www.w3.org/2000/svg">
<path d="M3.21191 2C3.21191 1.44772 2.7642 1 2.21191 1C1.65963 1 1.21191 1.44772 1.21191 2C1.21191 2.55228 1.65963 3 2.21191 3C2.7642 3 3.21191 2.55228 3.21191 2Z" fill="#888888"/>
<path d="M3.21191 9C3.21191 8.44772 2.7642 8 2.21191 8C1.65963 8 1.21191 8.44772 1.21191 9C1.21191 9.55229 1.65963 10 2.21191 10C2.7642 10 3.21191 9.55229 3.21191 9Z" fill="#888888"/>
<path d="M3.21191 16C3.21191 15.4477 2.7642 15 2.21191 15C1.65963 15 1.21191 15.4477 1.21191 16C1.21191 16.5523 1.65963 17 2.21191 17C2.7642 17 3.21191 16.5523 3.21191 16Z" fill="#888888"/>
<path d="M3.21191 2C3.21191 1.44772 2.7642 1 2.21191 1C1.65963 1 1.21191 1.44772 1.21191 2C1.21191 2.55228 1.65963 3 2.21191 3C2.7642 3 3.21191 2.55228 3.21191 2Z" stroke="#888888" stroke-linecap="round" stroke-linejoin="round"/>
<path d="M3.21191 9C3.21191 8.44772 2.7642 8 2.21191 8C1.65963 8 1.21191 8.44772 1.21191 9C1.21191 9.55229 1.65963 10 2.21191 10C2.7642 10 3.21191 9.55229 3.21191 9Z" stroke="#888888" stroke-linecap="round" stroke-linejoin="round"/>
<path d="M3.21191 16C3.21191 15.4477 2.7642 15 2.21191 15C1.65963 15 1.21191 15.4477 1.21191 16C1.21191 16.5523 1.65963 17 2.21191 17C2.7642 17 3.21191 16.5523 3.21191 16Z" stroke="#888888" stroke-linecap="round" stroke-linejoin="round"/>
</svg>
