<svg width="18" height="20" viewBox="0 0 18 20" fill="none" xmlns="http://www.w3.org/2000/svg">
<path d="M13 16V14C13 13.4477 12.5523 13 12 13H6C5.44772 13 5 13.4477 5 14V16M13 16V18C13 18.5523 12.5523 19 12 19H6C5.44772 19 5 18.5523 5 18V16M13 16H16C16.5523 16 17 15.5523 17 15V8C17 7.44772 16.5523 7 16 7H13M5 16H2C1.44772 16 1 15.5523 1 15V8C1 7.44772 1.44772 7 2 7H5M5 7H13M5 7V2C5 1.44772 5.44772 1 6 1H12C12.5523 1 13 1.44772 13 2V7" stroke="#03B199" stroke-linecap="round" stroke-linejoin="round"/>
</svg>
