<svg width="16" height="16" viewBox="0 0 16 16" fill="none" xmlns="http://www.w3.org/2000/svg">
<path d="M14.9881 4.358L14.6179 3.71555C14.3379 3.22967 14.198 2.98674 13.9598 2.88986C13.7216 2.79299 13.4522 2.86943 12.9135 3.02231L11.9983 3.28009C11.6544 3.35941 11.2935 3.31441 10.9794 3.15305L10.7268 3.00727C10.4574 2.83478 10.2503 2.58045 10.1356 2.28151L9.8852 1.53347C9.7205 1.03846 9.63815 0.790952 9.4421 0.649382C9.24612 0.507812 8.98572 0.507813 8.46492 0.507813H7.62882C7.1081 0.507813 6.8477 0.507812 6.65165 0.649382C6.45564 0.790952 6.37329 1.03846 6.20862 1.53347L5.95815 2.28151C5.84349 2.58045 5.63634 2.83478 5.36703 3.00727L5.11437 3.15305C4.8003 3.31441 4.43944 3.35941 4.09548 3.28009L3.18031 3.02231C2.64156 2.86943 2.37219 2.79299 2.134 2.88986C1.89582 2.98674 1.75584 3.22967 1.47586 3.71555L1.10568 4.358C0.843244 4.81343 0.712024 5.04116 0.737494 5.28357C0.762956 5.52599 0.938622 5.72134 1.28994 6.11204L2.06322 6.97656C2.25222 7.21581 2.38641 7.6328 2.38641 8.00773C2.38641 8.3828 2.25227 8.79965 2.06325 9.03898L1.28994 9.9035C0.938622 10.2943 0.762964 10.4896 0.737494 10.732C0.712024 10.9744 0.843244 11.2021 1.10568 11.6575L1.47585 12.3C1.75582 12.7858 1.89582 13.0288 2.134 13.1257C2.37219 13.2226 2.64156 13.1461 3.18033 12.9932L4.09545 12.7354C4.43947 12.6561 4.8004 12.7012 5.1145 12.8626L5.36712 13.0084C5.63638 13.1809 5.84348 13.4351 5.95812 13.7341L6.20862 14.4822C6.37329 14.9772 6.45564 15.2247 6.65165 15.3663C6.8477 15.5078 7.1081 15.5078 7.62882 15.5078H8.46492C8.98572 15.5078 9.24612 15.5078 9.4421 15.3663C9.63815 15.2247 9.7205 14.9772 9.8852 14.4822L10.1357 13.7341C10.2503 13.4351 10.4574 13.1809 10.7267 13.0084L10.9793 12.8626C11.2934 12.7012 11.6543 12.6561 11.9983 12.7354L12.9135 12.9932C13.4522 13.1461 13.7216 13.2226 13.9598 13.1257C14.198 13.0288 14.3379 12.7858 14.6179 12.3L14.9881 11.6575C15.2505 11.2021 15.3817 10.9744 15.3563 10.732C15.3308 10.4896 15.1551 10.2943 14.8038 9.9035L14.0305 9.03898C13.8415 8.79965 13.7073 8.3828 13.7073 8.00773C13.7073 7.6328 13.8416 7.21581 14.0305 6.97656L14.8038 6.11204C15.1551 5.72134 15.3308 5.52599 15.3563 5.28357C15.3817 5.04116 15.2505 4.81343 14.9881 4.358Z" stroke="#3F3F3F" stroke-linecap="round"/>
<path d="M10.6396 8C10.6396 9.44975 9.46438 10.625 8.01463 10.625C6.56488 10.625 5.38965 9.44975 5.38965 8C5.38965 6.55025 6.56488 5.375 8.01463 5.375C9.46438 5.375 10.6396 6.55025 10.6396 8Z" stroke="#3F3F3F"/>
</svg>
