<svg width="17" height="24" viewBox="0 0 17 24" fill="none" xmlns="http://www.w3.org/2000/svg">
<path d="M0.75 11.1964V12C2.22281 9.92839 5.19194 8.01991 7.28226 7.98214V10.3929C7.28226 10.8356 7.72732 11.1964 8.27777 11.1964C8.59481 11.1964 8.86568 11.0695 9.04684 10.8822C10.7304 9.25179 14.25 5.97321 14.25 5.97321C14.25 5.97321 10.7304 2.69304 9.04597 1.0417C8.84122 0.855349 8.56537 0.750605 8.27777 0.75C7.72732 0.75 7.28226 1.1092 7.28226 1.55357V3.96429C3.22355 3.96429 0.75 8.28027 0.75 11.1964Z" fill="white"/>
<path d="M16.5 13.5V12.75C15.0272 14.6835 12.0581 16.4647 9.96774 16.5V14.25C9.96774 13.8368 9.52268 13.5 8.97223 13.5C8.65519 13.5 8.38432 13.6185 8.20316 13.7933C6.51958 15.315 3 18.375 3 18.375C3 18.375 6.51958 21.4365 8.20403 22.9778C8.40878 23.1517 8.68463 23.2494 8.97223 23.25C9.52268 23.25 9.96774 22.9147 9.96774 22.5V20.25C14.0265 20.25 16.5 16.2217 16.5 13.5Z" fill="white"/>
</svg>
