<svg width="16" height="16" viewBox="0 0 16 16" fill="none" xmlns="http://www.w3.org/2000/svg">
<path d="M3.93318 10.6112C2.8721 11.243 0.0900223 12.5331 1.7845 14.1475C2.61223 14.936 3.53412 15.5 4.69315 15.5H11.3068C12.4659 15.5 13.3878 14.936 14.2155 14.1475C15.91 12.5331 13.1279 11.243 12.0668 10.6112C9.5786 9.12959 6.42139 9.12959 3.93318 10.6112Z" stroke="#00B09B" stroke-linecap="round" stroke-linejoin="round"/>
<path d="M11.375 3.875C11.375 5.73896 9.86398 7.25 8 7.25C6.13604 7.25 4.625 5.73896 4.625 3.875C4.625 2.01104 6.13604 0.5 8 0.5C9.86398 0.5 11.375 2.01104 11.375 3.875Z" stroke="#00B09B"/>
</svg>
