<svg width="19" height="18" viewBox="0 0 19 18" fill="none" xmlns="http://www.w3.org/2000/svg">
<path d="M5.20755 16.3795L5.02147 16.2728L4.81594 16.3341L0.959298 17.485L0.959195 17.485C0.826516 17.5247 0.682909 17.484 0.590704 17.3806L0.590648 17.3805C0.498459 17.2772 0.474305 17.1299 0.528746 17.0025C0.52875 17.0025 0.528754 17.0024 0.528757 17.0024L2.00661 13.5445L2.1026 13.3199L1.98445 13.1061C1.31161 11.8888 0.928589 10.4887 0.928589 8.99998C0.928589 4.30557 4.73416 0.5 9.42855 0.5C14.123 0.5 17.9285 4.30557 17.9285 8.99998C17.9285 13.6944 14.123 17.5 9.42855 17.5C7.8927 17.5 6.45135 17.0924 5.20755 16.3795Z" stroke="#95C93E"/>
<path d="M10.6435 11.6627L11.7699 10.8692C12.0465 10.6745 12.4116 10.6606 12.7022 10.8337L14.1408 11.6908C14.3811 11.834 14.5364 12.0855 14.5569 12.3645C14.5773 12.6435 14.4603 12.915 14.2434 13.0916L13.7364 13.5048C13.2403 13.909 12.5363 14.1657 11.7923 13.9742C10.8689 13.7364 9.28985 13.1243 7.73536 11.5698C6.29049 10.1249 5.58519 8.584 5.2547 7.60498C4.93592 6.66058 5.32054 5.72787 5.97088 5.16028L6.24132 4.92426C6.43833 4.75233 6.70303 4.67972 6.96019 4.72707C7.21734 4.77444 7.43881 4.93659 7.56163 5.16742L8.47377 6.8817C8.66303 7.23746 8.57894 7.67706 8.27174 7.9378L7.55587 8.54543C7.88836 9.12143 8.33928 9.74937 8.94751 10.3576C9.5326 10.9427 10.1159 11.3622 10.6435 11.6627Z" fill="#95C93E"/>
</svg>
