<svg width="57" height="45" viewBox="0 0 57 45" fill="none" xmlns="http://www.w3.org/2000/svg">
<path d="M52.0781 42.8879L53.3575 42.9053C53.401 43.4972 53.871 43.9062 54.6195 43.9062C55.22 43.9062 55.6639 43.6451 55.6639 43.1664C55.6639 42.6529 55.1678 42.5485 54.1495 42.3483C53.1225 42.1568 52.2174 41.8261 52.2174 40.5902C52.2174 39.511 53.1138 38.7451 54.489 38.7451C55.925 38.7451 56.8389 39.4936 56.8563 40.6599H55.5769C55.516 40.1464 55.1243 39.7895 54.489 39.7895C53.9319 39.7895 53.5316 40.0245 53.5316 40.4945C53.5316 40.9906 54.0103 41.095 55.0199 41.2865C56.0643 41.478 56.9868 41.7913 56.9781 43.0185C56.9694 44.1586 56.0295 44.9419 54.6021 44.9419C53.0529 44.9419 52.0868 44.1238 52.0781 42.8879Z" fill="#1E1E1E"/>
<path d="M48.8913 44.9419C47.081 44.9419 45.9844 43.7147 45.9844 41.8435C45.9844 39.9723 47.1245 38.7451 48.9696 38.7451C50.4144 38.7451 51.4327 39.6503 51.5893 40.9732H50.2664C50.1098 40.2943 49.6224 39.8504 48.9 39.8504C47.9078 39.8504 47.316 40.6686 47.316 41.8435C47.316 43.0098 47.8991 43.8366 48.8826 43.8366C49.6224 43.8366 50.1098 43.3927 50.2664 42.7139H51.5806C51.4327 44.0368 50.3796 44.9419 48.8913 44.9419Z" fill="#1E1E1E"/>
<path d="M43.8906 44.8902V38.7979H45.1961V44.8902H43.8906Z" fill="#1E1E1E"/>
<path d="M38.3672 39.9206V38.7979H43.1976V39.9206H41.4308V44.8902H40.1253V39.9206H38.3672Z" fill="#1E1E1E"/>
<path d="M33.2773 42.8879L34.5567 42.9053C34.6003 43.4972 35.0702 43.9062 35.8187 43.9062C36.4193 43.9062 36.8631 43.6451 36.8631 43.1664C36.8631 42.6529 36.367 42.5485 35.3487 42.3483C34.3217 42.1568 33.4166 41.8261 33.4166 40.5902C33.4166 39.511 34.313 38.7451 35.6882 38.7451C37.1242 38.7451 38.0381 39.4936 38.0555 40.6599H36.7761C36.7152 40.1464 36.3235 39.7895 35.6882 39.7895C35.1312 39.7895 34.7308 40.0245 34.7308 40.4945C34.7308 40.9906 35.2095 41.095 36.2191 41.2865C37.2635 41.478 38.186 41.7913 38.1773 43.0185C38.1686 44.1586 37.2287 44.9419 35.8013 44.9419C34.2521 44.9419 33.286 44.1238 33.2773 42.8879Z" fill="#1E1E1E"/>
<path d="M32.7315 41.8435C32.7315 43.619 31.5044 44.9419 29.7115 44.9419C27.9186 44.9419 26.6914 43.619 26.6914 41.8435C26.6914 40.068 27.9186 38.7451 29.7115 38.7451C31.5044 38.7451 32.7315 40.068 32.7315 41.8435ZM28.023 41.8435C28.023 42.9924 28.6845 43.8366 29.7115 43.8366C30.7298 43.8366 31.3912 42.9924 31.3912 41.8435C31.3912 40.6947 30.7298 39.8504 29.7115 39.8504C28.6845 39.8504 28.023 40.6947 28.023 41.8435Z" fill="#1E1E1E"/>
<path d="M22.1192 44.8902H20.8398V38.7979H22.0235L24.6084 42.636V38.7979H25.8965V44.8902H24.7041L22.1192 41.052V44.8902Z" fill="#1E1E1E"/>
<path d="M16.9763 44.9419C15.2357 44.9419 14.0781 43.7147 14.0781 41.8435C14.0781 39.9723 15.227 38.7451 17.0982 38.7451C18.5691 38.7451 19.6048 39.6503 19.7614 40.9645H18.4559C18.2993 40.2943 17.8119 39.8504 17.0634 39.8504C16.0451 39.8504 15.4097 40.6686 15.4097 41.8435C15.4097 43.0185 16.019 43.8366 17.0634 43.8366C17.7596 43.8366 18.4646 43.471 18.5865 42.6181V42.5398H17.0721V41.5041H19.7962V44.8897H18.8824L18.7518 44.1586C18.4298 44.5851 17.838 44.9419 16.9763 44.9419Z" fill="#1E1E1E"/>
<path d="M9.37051 44.8902H8.02148L10.2495 38.7979H11.8162L14.0268 44.8902H12.6256L12.1556 43.5586H9.84049L9.37051 44.8902ZM10.9893 40.1904L10.1886 42.5055H11.7987L10.9893 40.1904Z" fill="#1E1E1E"/>
<path d="M6.16992 44.8902V38.7979H7.47543V44.8902H6.16992Z" fill="#1E1E1E"/>
<path d="M2.21936 44.8902H0V38.7979H2.21936C4.11669 38.7979 5.37868 40.0424 5.37868 41.8353C5.37868 43.6195 4.11669 44.8902 2.21936 44.8902ZM1.3055 39.8858V43.8023H2.21936C3.38561 43.8023 4.03836 42.9929 4.03836 41.8353C4.03836 40.6691 3.38561 39.8858 2.21936 39.8858H1.3055Z" fill="#1E1E1E"/>
<path d="M50.1553 17.2106C53.9296 17.9654 56.9993 20.4313 56.9993 25.5643C56.9993 31.6534 51.7657 35.8302 43.4623 35.8302C35.159 35.8302 29.875 31.6031 29.875 24.0546H37.0712C37.1719 28.0301 39.99 30.1437 43.8146 30.1437C47.0856 30.1437 49.6521 28.2817 49.6521 25.1113C49.6521 22.3436 47.5888 20.5822 43.5126 20.5822H40.0403V14.7951H43.11C46.9849 14.7951 48.9475 12.8325 48.9475 10.0647C48.9475 7.19624 46.532 5.68654 43.5126 5.68654C40.0906 5.68654 37.6751 7.80012 37.5745 11.0711H30.4789C30.5795 4.47878 35.9138 0 43.6133 0C51.5644 0 56.2948 3.72393 56.2948 9.51111C56.2948 13.7886 53.6276 16.3048 50.1553 17.2106Z" fill="#95C93E"/>
<path d="M0 35.5286V0.302246H14.3422C22.092 0.302246 27.2753 4.88167 27.2753 12.0276C27.2753 16.5567 24.9101 20.18 21.2365 21.9413L28.1811 35.5286H19.8274L13.8892 23.7026H7.5485V35.5286H0ZM13.7383 6.59266H7.5485V17.4122H13.7383C17.3112 17.4122 19.5758 15.2986 19.5758 12.0276C19.5758 8.70624 17.3112 6.59266 13.7383 6.59266Z" fill="#00B09B"/>
</svg>
